<svg width="49" height="50" viewBox="0 0 49 50" fill="none" xmlns="http://www.w3.org/2000/svg">
<path d="M28 35.9419C28 36.874 27.6313 37.7679 26.9749 38.427C26.3185 39.0861 25.4283 39.4564 24.5 39.4564C23.5717 39.4564 22.6815 39.0861 22.0251 38.427C21.3687 37.7679 21 36.874 21 35.9419C21 35.0098 21.3687 34.1158 22.0251 33.4567C22.6815 32.7976 23.5717 32.4274 24.5 32.4274C25.4283 32.4274 26.3185 32.7976 26.9749 33.4567C27.6313 34.1158 28 35.0098 28 35.9419Z" fill="#14AE5C"/>
<path d="M29.9763 0L37.3963 10.4405L42.2893 8.76523L46.7553 21.8838H49V50H0V21.8838H1.19V21.8604L2.702 21.8744L29.9763 0ZM18.4263 21.8838H41.825L39.4053 14.7774L35.854 15.9185L18.4263 21.8838ZM14.791 18.1748L32.7833 12.0197L29.0407 6.74789L14.791 18.1748ZM9.33333 26.5698H4.66667V31.2559C5.90434 31.2559 7.09133 30.7622 7.9665 29.8834C8.84167 29.0045 9.33333 27.8126 9.33333 26.5698ZM32.6667 35.9419C32.6667 34.865 32.4554 33.7986 32.045 32.8037C31.6346 31.8087 31.0331 30.9047 30.2747 30.1432C29.5164 29.3817 28.6161 28.7777 27.6252 28.3656C26.6344 27.9534 25.5725 27.7413 24.5 27.7413C23.4275 27.7413 22.3656 27.9534 21.3748 28.3656C20.3839 28.7777 19.4836 29.3817 18.7253 30.1432C17.967 30.9047 17.3654 31.8087 16.955 32.8037C16.5446 33.7986 16.3333 34.865 16.3333 35.9419C16.3333 38.1168 17.1937 40.2027 18.7253 41.7406C20.2568 43.2785 22.3341 44.1425 24.5 44.1425C26.6659 44.1425 28.7432 43.2785 30.2747 41.7406C31.8063 40.2027 32.6667 38.1168 32.6667 35.9419ZM44.3333 45.314V40.6279C43.0957 40.6279 41.9087 41.1216 41.0335 42.0004C40.1583 42.8792 39.6667 44.0712 39.6667 45.314H44.3333ZM39.6667 26.5698C39.6667 27.8126 40.1583 29.0045 41.0335 29.8834C41.9087 30.7622 43.0957 31.2559 44.3333 31.2559V26.5698H39.6667ZM4.66667 45.314H9.33333C9.33333 44.0712 8.84167 42.8792 7.9665 42.0004C7.09133 41.1216 5.90434 40.6279 4.66667 40.6279V45.314Z" fill="#14AE5C"/>
</svg>
